<?xml version="1.0" standalone="no"?>
<!DOCTYPE svg PUBLIC "-//W3C//DTD SVG 20010904//EN"
 "http://www.w3.org/TR/2001/REC-SVG-20010904/DTD/svg10.dtd">
<svg version="1.0" xmlns="http://www.w3.org/2000/svg"
 width="800.000000pt" height="600.000000pt" viewBox="0 0 800.000000 600.000000"
 preserveAspectRatio="xMidYMid meet">

<g transform="translate(0.000000,600.000000) scale(0.100000,-0.100000)"
fill="#000000" stroke="none">
<path d="M1853 3681 c-55 -34 -63 -63 -63 -221 l0 -140 110 0 109 0 3 78 3 77
200 3 c111 1 221 -2 248 -8 125 -27 257 -130 311 -243 124 -263 -31 -567 -319
-627 -28 -6 -137 -9 -245 -8 l-195 3 -3 78 -3 77 -109 0 -110 0 0 -141 c0
-163 10 -197 67 -224 31 -15 70 -16 331 -12 288 4 299 5 377 30 109 36 198 90
275 167 80 80 133 168 168 277 15 46 30 83 33 83 14 0 61 -44 77 -73 13 -26
18 -69 23 -222 5 -167 8 -197 28 -249 43 -108 152 -194 268 -212 101 -15 233
42 302 129 55 70 71 132 71 277 l0 128 37 23 c20 13 31 25 24 27 -6 2 -23 -3
-36 -12 -23 -15 -25 -14 -40 6 -24 35 -20 77 9 88 37 14 95 69 117 111 44 87
8 211 -78 268 -48 32 -113 47 -161 36 -78 -17 -155 -100 -167 -180 -13 -84 39
-186 115 -225 45 -23 49 -39 26 -105 -10 -27 -20 -40 -34 -41 -29 -2 -133 50
-170 85 -34 31 -77 103 -92 151 -8 23 -8 23 -9 4 -1 -26 25 -87 56 -130 32
-44 120 -101 178 -115 28 -7 53 -17 57 -23 4 -6 8 -56 8 -112 0 -86 -3 -107
-23 -144 -45 -86 -162 -117 -244 -64 -73 48 -77 63 -83 289 -5 196 -6 201 -34
260 -36 73 -103 139 -176 174 -42 20 -56 32 -58 51 -6 49 -45 156 -80 220 -54
100 -179 218 -283 268 -148 71 -169 75 -494 79 -276 4 -292 3 -322 -16z m1775
-559 c-3 -86 85 -182 167 -182 37 0 31 -19 -12 -36 -108 -46 -235 63 -204 173
20 69 50 98 49 45z"/>
<path d="M4360 3360 c-8 -4 -37 -16 -65 -26 -69 -24 -154 -111 -179 -183 -54
-154 13 -323 158 -399 44 -23 63 -27 141 -27 78 0 98 4 146 27 30 15 65 38 77
50 l21 23 -56 49 -55 49 -31 -18 c-73 -43 -158 -36 -214 18 -109 103 -32 282
119 279 48 -1 95 -19 117 -46 11 -13 20 -9 71 27 32 23 59 47 59 54 1 19 -77
80 -127 97 -26 10 -55 21 -64 27 -22 11 -98 11 -118 -1z"/>
<path d="M3423 3247 c-53 -57 -83 -139 -82 -220 l2 -62 8 74 c10 87 38 149 92
209 22 23 35 42 30 42 -6 0 -28 -19 -50 -43z"/>
<path d="M4752 3212 c-62 -22 -90 -45 -108 -89 -18 -42 -18 -144 0 -187 19
-47 48 -71 151 -126 125 -68 135 -79 135 -144 0 -59 -14 -80 -52 -74 -21 3
-23 8 -26 81 l-3 77 -104 0 -105 0 0 -73 c0 -97 19 -133 94 -171 50 -26 67
-30 149 -30 110 -1 174 16 223 58 36 31 37 35 42 112 9 154 -16 191 -190 284
-95 51 -104 58 -112 92 -12 49 4 88 38 88 28 0 36 -16 36 -76 l0 -44 105 0
105 0 0 56 c0 81 -21 118 -85 150 -74 36 -216 43 -293 16z"/>
<path d="M5240 2850 l0 -370 195 0 195 0 0 75 0 75 -80 0 -80 0 0 80 0 80 70
0 70 0 0 70 0 70 -70 0 -70 0 0 70 0 70 75 0 75 0 0 75 0 75 -190 0 -190 0 0
-370z"/>
<path d="M5720 2850 l0 -370 95 0 95 0 2 162 3 162 56 -159 57 -160 101 -3
101 -3 0 371 0 370 -95 0 -95 0 0 -162 c-1 -190 1 -190 -80 25 l-52 137 -94 0
-94 0 0 -370z"/>
</g>
</svg>
