<?xml version="1.0" standalone="no"?>
<!DOCTYPE svg PUBLIC "-//W3C//DTD SVG 20010904//EN"
 "http://www.w3.org/TR/2001/REC-SVG-20010904/DTD/svg10.dtd">
<svg version="1.0" xmlns="http://www.w3.org/2000/svg"
 width="1080.000000pt" height="771.000000pt" viewBox="0 0 1080.000000 771.000000"
 preserveAspectRatio="xMidYMid meet">
<metadata>
Created by potrace 1.16, written by Peter Selinger 2001-2019
</metadata>
<g transform="translate(0.000000,771.000000) scale(0.100000,-0.100000)"
fill="#000000" stroke="none">
<path d="M0 3855 l0 -3855 5400 0 5400 0 0 3855 0 3855 -5400 0 -5400 0 0
-3855z m4833 790 c8 -8 43 -19 78 -24 59 -10 231 -87 274 -123 197 -164 285
-350 285 -605 0 -93 -4 -123 -24 -180 -13 -37 -27 -84 -31 -103 -9 -43 -26
-76 -59 -114 -14 -16 -26 -33 -26 -38 0 -14 -82 -98 -110 -113 -14 -7 -37 -11
-51 -8 -18 3 -41 -7 -87 -41 -34 -25 -62 -50 -62 -56 0 -19 -29 -10 -43 13
-10 17 -12 50 -8 137 l6 115 39 13 c97 31 205 137 261 256 26 56 27 66 23 165
-5 120 -20 163 -89 262 -43 61 -134 130 -209 158 -196 74 -431 -27 -535 -230
-42 -83 -55 -182 -36 -279 12 -60 78 -187 118 -228 41 -41 106 -85 151 -101
l47 -17 3 -104 c1 -58 3 -124 4 -147 3 -53 -26 -92 -51 -69 -9 8 -41 18 -70
22 -30 4 -66 13 -80 20 -14 8 -35 14 -47 14 -11 0 -24 4 -30 9 -5 5 -31 21
-57 35 -122 64 -265 214 -297 312 -7 19 -16 34 -20 34 -5 0 -20 35 -33 78 -20
66 -23 93 -20 191 6 169 33 268 97 360 40 56 45 62 124 144 43 45 52 60 47 80
-5 19 0 29 21 46 15 11 30 21 35 21 4 0 36 13 71 29 67 31 184 68 233 74 77
10 144 7 158 -8z m-191 -465 c-9 -40 -1 -142 14 -181 38 -95 114 -186 194
-231 69 -38 174 -64 206 -50 31 15 61 15 69 2 14 -22 -96 -101 -166 -120 -63
-17 -171 -13 -229 9 -92 35 -177 125 -209 222 -18 56 -15 177 7 231 27 70 79
140 100 136 9 -2 16 -10 14 -18z"/>
</g>
</svg>
